<?xml version="1.0" encoding="iso-8859-1"?>
<!-- Uploaded to: SVG Repo, www.svgrepo.com, Generator: SVG Repo Mixer Tools -->
<svg height="800px" width="800px" version="1.1" id="Capa_1" xmlns="http://www.w3.org/2000/svg" xmlns:xlink="http://www.w3.org/1999/xlink" 
	 viewBox="0 0 23.282 23.282" xml:space="preserve">
<g>
	<g>
		<g>
			<path style="fill:#ffffff;" d="M20.969,1.661c-0.145,0-0.274,0.044-0.374,0.143c-0.566,0.566-9.044,9.045-9.523,9.523
				l-0.004-0.004l-0.004,0.014c-0.005,0.005-0.007,0.021-0.007,0.021s-1.256,2.948-1.051,3.154c0.204,0.206,3.166-1.04,3.166-1.04
				s8.792-8.791,9.546-9.546C23.365,3.277,21.853,1.661,20.969,1.661z M22.356,3.565l-9.186,9.187l-1.401-1.401
				c1.679-1.678,8.672-8.673,9.173-9.176c0,0,0.008-0.004,0.027-0.004c0.357,0,1.113,0.599,1.344,1.157
				C22.371,3.466,22.369,3.552,22.356,3.565z"/>
		</g>
		<g>
			<g>
				<path style="fill:#ffffff;" d="M16.203,11.026v7.417h-3.556v3.267l-0.048,0.044H1.935V1.528h14.268v4.019l1.529-1.529V0.764
					C17.732,0.341,17.389,0,16.968,0H1.171C0.749,0,0.407,0.341,0.407,0.764v21.754c0,0.422,0.342,0.764,0.764,0.764h11.721
					c0.188,0,0.369-0.07,0.51-0.194l4.076-3.648c0.162-0.145,0.254-0.352,0.254-0.569V9.498L16.203,11.026z"/>
			</g>
		</g>
		<g>
			<path style="fill:#ffffff;" d="M13.584,11.193c-0.048,0-0.098-0.02-0.135-0.056c-0.075-0.075-0.075-0.196,0-0.271l8.472-8.472
				c0.074-0.075,0.196-0.075,0.27,0c0.075,0.075,0.075,0.196,0,0.271l-8.471,8.472C13.682,11.174,13.633,11.193,13.584,11.193z"/>
		</g>
	</g>
</g>
</svg>